<svg width="228" height="52" viewBox="0 0 228 52" fill="none" xmlns="http://www.w3.org/2000/svg">
<rect x="0.5" y="0.5" width="227" height="51" rx="25.5" fill="#7C3AED"/>
<rect x="0.5" y="0.5" width="227" height="51" rx="25.5" stroke="black"/>
<path d="M52.56 19.504C52.224 19.216 51.736 19 51.096 18.856L51.216 17.992H57.024L56.88 18.856C56.048 18.968 55.36 19.184 54.816 19.504L58.584 30.328L62.016 19.504C61.376 19.168 60.648 18.952 59.832 18.856L59.952 17.992H65.232L65.088 18.856C64.544 18.952 64.048 19.16 63.6 19.48L58.896 34H57.744L52.56 19.504ZM69.3911 34.168C67.5991 34.168 66.3111 33.68 65.5271 32.704C64.7591 31.712 64.3751 30.24 64.3751 28.288C64.3751 26.512 64.7991 25.12 65.6471 24.112C66.5111 23.088 67.7591 22.576 69.3911 22.576C70.9751 22.576 72.0871 22.992 72.7271 23.824C73.3671 24.656 73.7111 25.888 73.7591 27.52L73.2551 28.168H66.5831V28.288C66.5831 29.328 66.6471 30.176 66.7751 30.832C66.9031 31.488 67.1831 32.016 67.6151 32.416C68.0471 32.8 68.6871 32.992 69.5351 32.992C70.1751 32.992 70.7591 32.872 71.2871 32.632C71.8151 32.392 72.2551 32.136 72.6071 31.864L73.2071 32.584C72.8071 32.952 72.2871 33.312 71.6471 33.664C71.0071 34 70.2551 34.168 69.3911 34.168ZM71.5991 27.112C71.5991 25.848 71.4311 24.936 71.0951 24.376C70.7751 23.816 70.1751 23.536 69.2951 23.536C68.3831 23.536 67.7111 23.872 67.2791 24.544C66.8471 25.2 66.6151 26.112 66.5831 27.28L71.5991 27.112ZM75.1129 33.136C75.4809 33.072 75.7769 33 76.0009 32.92C76.2249 32.84 76.4569 32.704 76.6969 32.512V25.672C76.6969 25.08 76.5689 24.68 76.3129 24.472C76.0729 24.248 75.6409 24.12 75.0169 24.088L75.0889 23.392C75.5849 23.296 76.2969 23.104 77.2249 22.816L78.0169 22.576L78.4489 22.792L78.6889 24.472C79.0569 23.912 79.4889 23.456 79.9849 23.104C80.4809 22.752 81.0089 22.576 81.5689 22.576C82.1449 22.576 82.6409 22.744 83.0569 23.08C83.4889 23.416 83.7049 23.896 83.7049 24.52C83.7049 24.92 83.5849 25.272 83.3449 25.576C83.1209 25.88 82.8169 26.032 82.4329 26.032C82.1609 26.032 81.9049 25.968 81.6649 25.84C81.4249 25.696 81.2729 25.512 81.2089 25.288C81.2729 25.224 81.3289 25.128 81.3769 25C81.4249 24.856 81.4489 24.728 81.4489 24.616C81.4489 24.136 81.2249 23.896 80.7769 23.896C80.4889 23.896 80.1849 24.048 79.8649 24.352C79.5449 24.656 79.2729 25.048 79.0489 25.528C78.8409 25.992 78.7369 26.464 78.7369 26.944V32.512C79.1689 32.8 79.8009 33.024 80.6329 33.184L80.5369 34H75.0169L75.1129 33.136ZM89.9739 33.112C90.8859 33 91.6139 32.784 92.1579 32.464V19.504C91.5339 19.184 90.7499 18.968 89.8059 18.856L89.9259 17.992H96.0939C97.9019 17.992 99.2379 18.376 100.102 19.144C100.982 19.896 101.422 20.992 101.422 22.432C101.422 24.096 100.878 25.272 99.7899 25.96C98.7019 26.632 97.1179 26.968 95.0379 26.968H94.2699V32.464C94.7979 32.768 95.5739 32.984 96.5979 33.112L96.5019 34H89.8299L89.9739 33.112ZM95.0379 25.888C96.3819 25.888 97.4219 25.608 98.1579 25.048C98.8939 24.472 99.2619 23.584 99.2619 22.384C99.2619 20.128 98.1259 19 95.8539 19C95.3579 19 94.8299 19.048 94.2699 19.144V25.888H95.0379ZM102.699 33.136C103.067 33.072 103.363 33 103.587 32.92C103.811 32.84 104.043 32.704 104.283 32.512V25.672C104.283 25.08 104.155 24.68 103.899 24.472C103.659 24.248 103.227 24.12 102.603 24.088L102.675 23.392C103.171 23.296 103.883 23.104 104.811 22.816L105.603 22.576L106.035 22.792L106.275 24.472C106.643 23.912 107.075 23.456 107.571 23.104C108.067 22.752 108.595 22.576 109.155 22.576C109.731 22.576 110.227 22.744 110.643 23.08C111.075 23.416 111.291 23.896 111.291 24.52C111.291 24.92 111.171 25.272 110.931 25.576C110.707 25.88 110.403 26.032 110.019 26.032C109.747 26.032 109.491 25.968 109.251 25.84C109.011 25.696 108.859 25.512 108.795 25.288C108.859 25.224 108.915 25.128 108.963 25C109.011 24.856 109.035 24.728 109.035 24.616C109.035 24.136 108.811 23.896 108.363 23.896C108.075 23.896 107.771 24.048 107.451 24.352C107.131 24.656 106.859 25.048 106.635 25.528C106.427 25.992 106.323 26.464 106.323 26.944V32.512C106.755 32.8 107.387 33.024 108.219 33.184L108.123 34H102.603L102.699 33.136ZM116.807 34.168C115.127 34.168 113.855 33.672 112.991 32.68C112.143 31.688 111.719 30.248 111.719 28.36C111.719 26.472 112.143 25.04 112.991 24.064C113.855 23.072 115.127 22.576 116.807 22.576C118.487 22.576 119.751 23.072 120.599 24.064C121.463 25.04 121.895 26.472 121.895 28.36C121.895 30.248 121.463 31.688 120.599 32.68C119.751 33.672 118.487 34.168 116.807 34.168ZM116.807 33.064C117.847 33.064 118.599 32.696 119.063 31.96C119.543 31.224 119.783 30.024 119.783 28.36C119.783 26.696 119.551 25.504 119.087 24.784C118.623 24.048 117.863 23.68 116.807 23.68C115.767 23.68 115.015 24.048 114.551 24.784C114.103 25.504 113.879 26.696 113.879 28.36C113.879 30.024 114.103 31.224 114.551 31.96C115.015 32.696 115.767 33.064 116.807 33.064ZM127.642 34.168C126.186 34.168 125.09 33.704 124.354 32.776C123.618 31.848 123.25 30.464 123.25 28.624C123.25 26.656 123.714 25.16 124.642 24.136C125.57 23.096 126.914 22.576 128.674 22.576C129.362 22.576 130.042 22.712 130.714 22.984V20.392C130.714 19.8 130.594 19.4 130.354 19.192C130.114 18.968 129.682 18.84 129.058 18.808L129.106 18.112C129.842 17.984 130.746 17.752 131.818 17.416L132.298 17.272L132.778 17.512V32.536C133.146 32.824 133.698 33.04 134.434 33.184L134.362 34H130.906L130.714 32.584C130.042 33.64 129.018 34.168 127.642 34.168ZM127.858 33.136C128.786 33.136 129.49 32.76 129.97 32.008C130.466 31.256 130.714 30.128 130.714 28.624V24.064C130.426 23.92 130.122 23.808 129.802 23.728C129.482 23.632 129.082 23.584 128.602 23.584C127.578 23.584 126.778 24.024 126.202 24.904C125.642 25.784 125.362 27.024 125.362 28.624C125.362 30.176 125.562 31.32 125.962 32.056C126.378 32.776 127.01 33.136 127.858 33.136ZM141.023 34.168C138.447 34.168 137.159 32.88 137.159 30.304V25.624C137.159 25.032 137.039 24.632 136.799 24.424C136.559 24.2 136.127 24.072 135.503 24.04L135.551 23.344C136.287 23.216 137.191 22.984 138.263 22.648L138.743 22.504L139.223 22.744V30.568C139.223 31.352 139.383 31.968 139.703 32.416C140.039 32.864 140.567 33.088 141.287 33.088C141.703 33.088 142.143 32.936 142.607 32.632C143.071 32.312 143.479 31.832 143.831 31.192V25.624C143.831 25.032 143.703 24.632 143.447 24.424C143.207 24.2 142.775 24.072 142.151 24.04L142.223 23.344C142.959 23.216 143.863 22.984 144.935 22.648L145.415 22.504L145.871 22.744V32.512C146.015 32.64 146.247 32.768 146.567 32.896C146.887 33.008 147.207 33.096 147.527 33.16L147.455 34H144.263L144.023 32.488C143.607 33.048 143.135 33.472 142.607 33.76C142.095 34.032 141.567 34.168 141.023 34.168ZM153.092 34.24C152.02 34.24 151.292 34.016 150.908 33.568C150.524 33.12 150.332 32.36 150.332 31.288V24.088H148.388V23.368C149.94 22.84 150.964 21.872 151.46 20.464H152.42V22.792H155.492V24.088H152.396V31.456C152.396 32.048 152.468 32.472 152.612 32.728C152.772 32.984 153.124 33.112 153.668 33.112C154.02 33.112 154.324 33.072 154.58 32.992C154.836 32.896 155.092 32.776 155.348 32.632L155.828 33.352C155.492 33.592 155.116 33.8 154.7 33.976C154.3 34.152 153.764 34.24 153.092 34.24ZM161.502 34.168C159.822 34.168 158.55 33.672 157.686 32.68C156.838 31.688 156.414 30.248 156.414 28.36C156.414 26.472 156.838 25.04 157.686 24.064C158.55 23.072 159.822 22.576 161.502 22.576C163.182 22.576 164.446 23.072 165.294 24.064C166.158 25.04 166.59 26.472 166.59 28.36C166.59 30.248 166.158 31.688 165.294 32.68C164.446 33.672 163.182 34.168 161.502 34.168ZM161.502 33.064C162.542 33.064 163.294 32.696 163.758 31.96C164.238 31.224 164.478 30.024 164.478 28.36C164.478 26.696 164.246 25.504 163.782 24.784C163.318 24.048 162.558 23.68 161.502 23.68C160.462 23.68 159.71 24.048 159.246 24.784C158.798 25.504 158.574 26.696 158.574 28.36C158.574 30.024 158.798 31.224 159.246 31.96C159.71 32.696 160.462 33.064 161.502 33.064ZM171.665 34.144C171.105 34.144 170.457 34.056 169.721 33.88C169.001 33.688 168.457 33.472 168.089 33.232V30.28L169.361 30.112C169.425 30.784 169.497 31.32 169.577 31.72C169.673 32.104 169.817 32.472 170.009 32.824C170.521 32.984 171.137 33.064 171.857 33.064C172.513 33.064 173.049 32.888 173.465 32.536C173.881 32.184 174.089 31.744 174.089 31.216C174.089 30.688 173.881 30.296 173.465 30.04C173.065 29.768 172.425 29.48 171.545 29.176C170.809 28.92 170.209 28.672 169.745 28.432C169.297 28.192 168.913 27.848 168.593 27.4C168.273 26.952 168.113 26.376 168.113 25.672C168.113 24.712 168.465 23.96 169.169 23.416C169.889 22.872 170.873 22.6 172.121 22.6C172.793 22.6 173.409 22.704 173.969 22.912C174.545 23.12 175.001 23.408 175.337 23.776C175.673 24.128 175.841 24.52 175.841 24.952C175.841 25.784 175.473 26.2 174.737 26.2C174.433 26.2 174.177 26.152 173.969 26.056C173.777 25.944 173.601 25.776 173.441 25.552C173.713 25.36 173.849 25.072 173.849 24.688C173.849 24.352 173.665 24.08 173.297 23.872C172.945 23.664 172.505 23.56 171.977 23.56C171.337 23.56 170.833 23.704 170.465 23.992C170.097 24.28 169.913 24.672 169.913 25.168C169.913 25.568 170.033 25.904 170.273 26.176C170.529 26.432 170.833 26.64 171.185 26.8C171.537 26.96 172.041 27.152 172.697 27.376C173.385 27.632 173.945 27.88 174.377 28.12C174.825 28.36 175.201 28.696 175.505 29.128C175.809 29.544 175.961 30.08 175.961 30.736C175.961 31.808 175.585 32.648 174.833 33.256C174.081 33.848 173.025 34.144 171.665 34.144Z" fill="#F8FAFC"/>
</svg>
